HIERARCHY
ROOT Hips
{
	OFFSET 0.000000 0.000000 0.000000
	CHANNELS 6 Xposition Yposition Zposition Xrotation Yrotation Zrotation
	JOINT LeftUpLeg_virtual
	{
		OFFSET 0.000000 0.000000 0.000000
		CHANNELS 3 Xrotation Yrotation Zrotation
		JOINT LeftUpLeg
		{
			OFFSET 13.026900 -6.336304 -1.092800
			CHANNELS 3 Xrotation Yrotation Zrotation
			JOINT LeftLeg
			{
				OFFSET 0.524474 -46.096886 9.782700
				CHANNELS 3 Xrotation Yrotation Zrotation
				JOINT LeftFoot
				{
					OFFSET -0.524474 -53.427422 -12.948200
					CHANNELS 3 Xrotation Yrotation Zrotation
					JOINT LeftToeBase
					{
						OFFSET 0.192200 -14.009700 16.364100
						CHANNELS 3 Xrotation Yrotation Zrotation
						JOINT LeftToe_End
						{
							OFFSET -1.784700 -0.561700 9.474800
							CHANNELS 3 Xrotation Yrotation Zrotation
							End Site
							{
								OFFSET 0 0 0
							}
						}
					}
				}
			}
		}
	}
	JOINT RightUpLeg_virtual
	{
		OFFSET 0.000000 0.000000 0.000000
		CHANNELS 3 Xrotation Yrotation Zrotation
		JOINT RightUpLeg
		{
			OFFSET -12.883000 -6.336304 -1.092800
			CHANNELS 3 Xrotation Yrotation Zrotation
			JOINT RightLeg
			{
				OFFSET -0.524587 -46.096825 9.782800
				CHANNELS 3 Xrotation Yrotation Zrotation
				JOINT RightFoot
				{
					OFFSET 0.524587 -53.427383 -12.948300
					CHANNELS 3 Xrotation Yrotation Zrotation
					JOINT RightToeBase
					{
						OFFSET -0.192200 -14.009700 16.364100
						CHANNELS 3 Xrotation Yrotation Zrotation
						JOINT RightToe_End
						{
							OFFSET 1.784700 -0.561700 9.474800
							CHANNELS 3 Xrotation Yrotation Zrotation
							End Site
							{
								OFFSET 0 0 0
							}
						}
					}
				}
			}
		}
	}
	JOINT Spine_virtual
	{
		OFFSET 0.000000 0.000000 0.000000
		CHANNELS 3 Xrotation Yrotation Zrotation
		JOINT Spine
		{
			OFFSET 0.072000 7.257294 -0.789700
			CHANNELS 3 Xrotation Yrotation Zrotation
			JOINT Spine1
			{
				OFFSET 0.000000 12.508769 -0.658067
				CHANNELS 3 Xrotation Yrotation Zrotation
				JOINT Spine1_split
				{
					OFFSET 0.000000 12.508769 -0.658067
					CHANNELS 3 Xrotation Yrotation Zrotation
					JOINT Spine2
					{
						OFFSET 0.000000 12.508769 -0.658067
						CHANNELS 3 Xrotation Yrotation Zrotation
						JOINT Neck_virtual
						{
							OFFSET 0.000000 0.000000 0.000000
							CHANNELS 3 Xrotation Yrotation Zrotation
							JOINT Neck
							{
								OFFSET 0.000000 14.033295 7.520400
								CHANNELS 3 Xrotation Yrotation Zrotation
								JOINT Head
								{
									OFFSET 0.000000 8.198502 5.703100
									CHANNELS 3 Xrotation Yrotation Zrotation
									JOINT HeadTop_End
									{
										OFFSET 0.000000 17.760803 13.332701
										CHANNELS 3 Xrotation Yrotation Zrotation
										End Site
										{
											OFFSET 0 0 0
										}
									}
								}
							}
						}
						JOINT LeftShoulder_virtual
						{
							OFFSET 0.000000 0.000000 0.000000
							CHANNELS 3 Xrotation Yrotation Zrotation
							JOINT LeftShoulder
							{
								OFFSET 6.292450 5.785301 -0.669000
								CHANNELS 3 Xrotation Yrotation Zrotation
								JOINT LeftShoulder_split
								{
									OFFSET 6.292450 5.785301 -0.669000
									CHANNELS 3 Xrotation Yrotation Zrotation
									JOINT LeftArm
									{
										OFFSET 13.907140 -6.093903 1.965100
										CHANNELS 3 Xrotation Yrotation Zrotation
										JOINT LeftForeArm
										{
											OFFSET 34.140198 0.000000 0.000000
											CHANNELS 3 Xrotation Yrotation Zrotation
											JOINT LeftHand
											{
												OFFSET 40.960209 0.000000 0.000000
												CHANNELS 3 Xrotation Yrotation Zrotation
												End Site
												{
													OFFSET 0 0 0
												}
											}
										}
									}
								}
							}
						}
						JOINT RightShoulder_virtual
						{
							OFFSET 0.000000 0.000000 0.000000
							CHANNELS 3 Xrotation Yrotation Zrotation
							JOINT RightShoulder
							{
								OFFSET -6.292450 5.785301 -0.669000
								CHANNELS 3 Xrotation Yrotation Zrotation
								JOINT RightShoulder_split
								{
									OFFSET -6.292450 5.785301 -0.669000
									CHANNELS 3 Xrotation Yrotation Zrotation
									JOINT RightArm
									{
										OFFSET -13.907140 -6.093903 1.965100
										CHANNELS 3 Xrotation Yrotation Zrotation
										JOINT RightForeArm
										{
											OFFSET -34.140198 0.000000 0.000000
											CHANNELS 3 Xrotation Yrotation Zrotation
											JOINT RightHand
											{
												OFFSET -40.960209 0.000000 0.000000
												CHANNELS 3 Xrotation Yrotation Zrotation
												End Site
												{
													OFFSET 0 0 0
												}
											}
										}
									}
								}
							}
						}
					}
				}
			}
		}
	}
}
MOTION
Frames: 4
Frame Time: 0.03333333
75.883308 109.825241 50.209549 0.000000 0.000000 0.000000 0.773100 66.362944 -4.590790 -38.437924 -11.934356 -3.064405 17.872049 -1.456350 -3.422560 16.618675 -17.644954 -0.805412 0.183465 -2.740877 0.896935 0.000000 0.000000 0.000000 1.923745 70.286622 -6.064706 12.083010 -10.023751 3.359401 25.526377 4.322253 -3.088864 -2.679510 -19.330649 12.023035 -30.682740 0.149566 1.616726 0.000000 0.000000 0.000000 0.026133 62.880805 -4.585007 6.328610 14.667590 -1.953604 -1.103757 12.437909 -1.440656 1.119030 -1.558814 0.474266 0.000000 0.000000 0.000000 -0.390425 12.388417 -1.801768 25.854610 -15.592391 7.714776 -32.238162 -68.252195 -1.625716 0.000000 0.000000 0.000000 -0.841772 12.374763 -1.423610 -2.979728 -7.479497 -16.046623 1.360330 3.599686 -4.428818 27.088990 -53.262088 -28.950102 -2.245886 -70.919616 -2.566664 0.000000 0.000000 0.000000 -1.127454 11.958595 -2.241606 -6.624481 32.316494 19.460237 -6.004806 -0.658641 1.997132 -3.979139 27.030653 53.999363 -3.590284 49.720383 -0.288188 0.000000 0.000000 0.000000 
75.277298 109.754242 49.782166 0.000000 0.000000 0.000000 0.575022 64.054552 -4.089197 -38.690071 -11.887049 -2.584798 18.743234 -0.239717 -3.609141 16.085043 -17.308253 -0.710102 0.559192 -2.737459 0.815791 0.000000 0.000000 0.000000 1.632667 67.998379 -5.524074 12.461941 -11.068299 2.490565 24.081072 3.171323 -3.054886 -6.347831 -21.011651 8.733715 -23.986392 0.028353 2.273552 0.000000 0.000000 0.000000 0.114681 60.713647 -4.541654 6.467823 14.259517 -1.936774 -0.984599 11.936501 -1.214016 1.024673 -1.709471 0.528169 0.000000 0.000000 0.000000 -0.322321 11.925253 -1.567789 23.990884 -15.063943 6.935849 -31.206123 -67.692229 -0.937106 0.000000 0.000000 0.000000 -0.916648 11.962316 -1.288923 -2.903888 -7.027328 -15.984782 0.627004 3.756695 -4.343516 28.789811 -55.271639 -27.680996 -0.874593 -68.489708 -1.399268 0.000000 0.000000 0.000000 -1.081083 11.603441 -2.002743 -6.923061 31.473471 20.422378 -5.969354 -0.375922 2.243098 -4.613992 25.452678 54.655502 -3.367760 49.300763 -0.350672 0.000000 0.000000 0.000000 
74.540253 109.561058 49.331280 0.000000 0.000000 0.000000 0.534648 61.448794 -3.630453 -39.114437 -11.599405 -1.893352 20.144094 1.048173 -3.853206 15.154076 -16.988436 -0.817343 0.825599 -2.708480 0.792911 0.000000 0.000000 0.000000 1.654337 65.348436 -5.071752 12.837342 -11.991517 1.526268 22.711426 1.852193 -3.054648 -9.289319 -23.148320 5.909533 -18.088643 0.000601 2.731061 0.000000 0.000000 0.000000 0.126941 58.494874 -4.307318 6.568699 13.818323 -1.939399 -0.861297 11.388318 -1.067440 0.863572 -1.857179 0.541740 0.000000 0.000000 0.000000 -0.253034 11.392473 -1.410948 21.688880 -14.445640 5.692039 -29.361904 -66.843127 0.168137 0.000000 0.000000 0.000000 -0.938597 11.467459 -1.220993 -2.845880 -6.608914 -15.946320 0.177525 4.135163 -4.187766 29.700340 -56.801981 -27.095214 0.576237 -66.329941 -0.243783 0.000000 0.000000 0.000000 -0.953601 11.172612 -1.834072 -7.113347 30.632719 21.258090 -5.693071 -0.289318 2.477896 -5.068672 24.590249 54.497721 -3.142287 49.058537 -0.365196 0.000000 0.000000 0.000000 
73.728233 109.239655 48.869541 0.000000 0.000000 0.000000 0.668575 58.631519 -3.256944 -39.584296 -11.100854 -0.975803 21.944747 2.306876 -4.126483 13.976831 -16.574948 -1.026104 0.835920 -2.662302 0.812939 0.000000 0.000000 0.000000 2.015744 62.449417 -4.790878 13.157029 -12.598121 0.567296 21.215237 0.921546 -3.167413 -11.377330 -25.120169 4.391176 -14.002879 0.062548 2.710345 0.000000 0.000000 0.000000 0.203251 56.165895 -4.001533 6.591902 13.336031 -1.938564 -0.749359 10.786737 -0.964064 0.737823 -2.007554 0.590387 0.000000 0.000000 0.000000 -0.203276 10.779904 -1.287602 19.091304 -13.678020 3.820140 -26.428744 -65.529081 1.878406 0.000000 0.000000 0.000000 -0.928466 10.883049 -1.173478 -2.808200 -6.213333 -15.993743 0.046714 4.472803 -4.020034 29.285143 -57.530403 -27.778494 1.834186 -64.946377 0.692432 0.000000 0.000000 0.000000 -0.773946 10.627065 -1.720743 -7.165995 29.797885 21.905532 -5.350851 -0.444464 2.712532 -4.784936 24.405198 53.357591 -2.915544 49.603771 -0.349528 0.000000 0.000000 0.000000 
